<svg width="46" height="48" viewBox="0 0 46 48" fill="none" xmlns="http://www.w3.org/2000/svg">
<path d="M32.9465 6.19509H28.5591C28.228 4.64632 26.738 3.4663 24.9168 3.4663H21.6056C21.1917 1.47502 19.205 0 16.8871 0C14.5693 0 12.5826 1.47502 12.1687 3.4663H8.85747C7.03631 3.4663 5.54627 4.64632 5.21515 6.19509H0.827801C0.33112 6.19509 0 6.49009 0 6.9326V46.4632C0 46.9057 0.33112 47.2007 0.827801 47.2007H32.8637C33.3604 47.2007 33.6915 46.9057 33.6915 46.4632V6.9326C33.7743 6.49009 33.3604 6.19509 32.9465 6.19509ZM6.78797 6.7851C6.78797 5.75258 7.69855 4.94132 8.85747 4.94132H12.9137C13.4104 4.94132 13.7415 4.64632 13.7415 4.20381C13.7415 2.65504 15.1488 1.47502 16.8871 1.47502C18.6255 1.47502 19.95 2.72879 19.95 4.20381C19.95 4.64632 20.2811 4.94132 20.7778 4.94132H24.834C25.9929 4.94132 26.9035 5.75258 26.9035 6.7851V6.9326V8.62887H6.78797V6.7851ZM32.1187 45.7257H1.6556V7.67011H5.13237V9.36639C5.13237 9.80889 5.46349 10.1039 5.96017 10.1039H27.8141C28.3108 10.1039 28.6419 9.80889 28.6419 9.36639V7.67011H32.1187V45.7257Z" fill="#103EB4"/>
<path d="M11.3409 13.2013C9.68527 13.8651 8.19523 15.1926 7.20187 16.8151L6.29129 15.9301C5.96017 15.6351 5.46349 15.6351 5.13237 15.9301C4.80125 16.2251 4.80125 16.6676 5.13237 16.9627L6.95353 18.5852C7.36743 18.9539 8.11245 18.8064 8.27801 18.3639C9.10581 16.5939 10.5131 15.2664 12.0859 14.5288C12.4998 14.3813 12.6653 13.9388 12.4998 13.5701C12.2514 13.2013 11.7548 12.9801 11.3409 13.2013Z" fill="#103EB4"/>
<path d="M11.3409 29.058C9.68527 29.7218 8.19523 31.0493 7.20187 32.6718L6.29129 31.7868C5.96017 31.4918 5.46349 31.4918 5.13237 31.7868C4.80125 32.0818 4.80125 32.5243 5.13237 32.8193L6.95353 34.4419C7.36743 34.8106 8.11245 34.6631 8.27801 34.2206C9.10581 32.4506 10.5131 31.123 12.0859 30.3855C12.4998 30.238 12.6653 29.7955 12.4998 29.4267C12.2514 29.058 11.7548 28.9105 11.3409 29.058Z" fill="#103EB4"/>
<path d="M28.0625 14.9713H16.6388C16.1422 14.9713 15.811 15.2663 15.811 15.7089C15.811 16.1514 16.1422 16.4464 16.6388 16.4464H28.1453C28.642 16.4464 28.9731 16.1514 28.9731 15.7089C28.8903 15.3401 28.5592 14.9713 28.0625 14.9713Z" fill="#103EB4"/>
<path d="M28.0625 23.0103H16.6388C16.1422 23.0103 15.811 23.3052 15.811 23.7477C15.811 24.1902 16.1422 24.4852 16.6388 24.4852H28.1453C28.642 24.4852 28.9731 24.1902 28.9731 23.7477C28.8903 23.379 28.5592 23.0103 28.0625 23.0103Z" fill="#103EB4"/>
<path d="M28.0625 31.0491H16.6388C16.1422 31.0491 15.811 31.3441 15.811 31.7866C15.811 32.2292 16.1422 32.5242 16.6388 32.5242H28.1453C28.642 32.5242 28.9731 32.2292 28.9731 31.7866C28.8903 31.4178 28.5592 31.0491 28.0625 31.0491Z" fill="#103EB4"/>
<path d="M28.0625 39.0881H16.6388C16.1422 39.0881 15.811 39.3831 15.811 39.8257C15.811 40.2682 16.1422 40.5632 16.6388 40.5632H28.1453C28.642 40.5632 28.9731 40.2682 28.9731 39.8257C28.8903 39.4569 28.5592 39.0881 28.0625 39.0881Z" fill="#103EB4"/>
<path d="M5.46349 25.9603C5.79461 26.2553 6.29129 26.2553 6.62241 25.9603L7.86411 24.854L9.1058 25.9603C9.43692 26.2553 9.9336 26.2553 10.2647 25.9603C10.5958 25.6653 10.5958 25.2228 10.2647 24.9278L9.02302 23.8215L10.2647 22.7152C10.5958 22.4202 10.5958 21.9777 10.2647 21.6827C9.9336 21.3877 9.43692 21.3877 9.1058 21.6827L7.86411 22.789L6.62241 21.6827C6.29129 21.3877 5.79461 21.3877 5.46349 21.6827C5.13237 21.9777 5.13237 22.4202 5.46349 22.7152L6.70519 23.8215L5.46349 24.9278C5.13237 25.2228 5.13237 25.6653 5.46349 25.9603Z" fill="#103EB4"/>
<path d="M10.3475 37.6868C10.0164 37.3918 9.51971 37.3918 9.18859 37.6868L7.94689 38.7931L6.70519 37.6868C6.37407 37.3918 5.87739 37.3918 5.54627 37.6868C5.21515 37.9818 5.21515 38.4243 5.54627 38.7193L6.78797 39.8256L5.46349 41.0056C5.13237 41.3006 5.13237 41.7431 5.46349 42.0381C5.79461 42.3332 6.29129 42.3332 6.62241 42.0381L7.86411 40.9319L9.10581 42.0381C9.43693 42.3332 9.93361 42.3332 10.2647 42.0381C10.5958 41.7431 10.5958 41.3006 10.2647 41.0056L9.02303 39.8256L10.2647 38.7193C10.6786 38.4243 10.6786 37.9818 10.3475 37.6868Z" fill="#103EB4"/>
<path d="M43.8735 6.19519H38.2444C37.2511 6.19519 36.506 6.85895 36.506 7.67021C36.506 7.74396 36.506 42.4807 36.5888 40.1944L40.3139 46.832C40.6451 47.3482 41.4729 47.3482 41.804 46.832C45.8602 39.6044 45.6119 40.1206 45.6119 39.8994V7.67021C45.6947 6.85895 44.8669 6.19519 43.8735 6.19519ZM41.9696 39.0881V12.5378H44.0391V39.0881H41.9696ZM38.2444 39.0881V12.5378H40.3139V39.0881H38.2444ZM38.3272 7.67021H43.9563C44.0391 7.67021 44.0391 7.67021 44.0391 7.67021V11.0628H38.2444V7.67021C38.2444 7.74396 38.2444 7.67021 38.3272 7.67021ZM41.1417 44.8407L38.7411 40.5631H43.5424L41.1417 44.8407Z" fill="#103EB4"/>
</svg>
