<svg width="84" height="98" viewBox="0 0 84 98" fill="none" xmlns="http://www.w3.org/2000/svg">
<g clip-path="url(#clip0)">
<path d="M14.7341 80.6419L15.0362 79.1356C16.1526 79.3424 17.2935 79.5106 18.442 79.6113L18.2741 81.131C17.0794 81.0189 15.8967 80.8601 14.7341 80.6419ZM21.8267 81.3209L21.8605 79.7879C22.9993 79.792 24.1627 79.7577 25.3044 79.6734L25.4003 81.1988C24.2086 81.3055 23.0117 81.3365 21.8267 81.3209ZM28.9412 80.8208L28.7282 79.311C29.8521 79.1429 30.9962 78.9154 32.1186 78.638L32.4485 80.1321C31.2799 80.3982 30.115 80.6304 28.9412 80.8208ZM35.8933 79.1505L35.4382 77.6848C36.5345 77.3365 37.6174 76.9254 38.6832 76.4852L39.2465 77.8933C38.1561 78.372 37.0187 78.7845 35.8933 79.1505ZM42.5087 76.4155L41.833 75.044C42.86 74.5248 43.8737 73.9429 44.8494 73.3368L45.6414 74.6379C44.6285 75.2745 43.5731 75.866 42.5087 76.4155ZM48.6161 72.633L47.7286 71.3974C48.6655 70.7123 49.56 69.9819 50.4373 69.2225L51.4365 70.3668C50.5137 71.1695 49.582 71.9302 48.6161 72.633ZM54.0155 67.8923L52.9253 66.8345C53.2019 66.5411 53.4866 66.2349 53.7714 65.9286C54.2663 65.377 54.7568 64.8045 55.2137 64.2286L56.3904 65.1788C55.8962 65.7852 55.4101 66.3786 54.8861 66.9478C54.6059 67.275 54.3211 67.5813 54.0155 67.8923ZM58.5282 62.2779L57.2651 61.4352C57.4209 61.1912 57.5894 60.9553 57.7452 60.7114C58.2126 59.9795 58.6547 59.2314 59.084 58.4752L60.4127 59.2152C59.9796 60.0052 59.5212 60.779 59.0374 61.5365C58.8562 61.7643 58.6922 62.0211 58.5282 62.2779ZM60.6287 55.3582C61.1044 54.3062 61.542 53.2299 61.9334 52.1421L63.3635 52.6396C62.9602 53.774 62.4979 54.8888 62.0186 55.9746L60.6287 55.3582ZM62.9773 48.8319C63.2764 47.7213 63.5374 46.5864 63.7522 45.4401L65.2419 45.7046C65.0234 46.8846 64.7586 48.0533 64.435 49.2024L62.9773 48.8319ZM64.2669 42.0089C64.3938 40.8607 64.4745 39.701 64.5007 38.5428L66.0166 38.5708C65.9866 39.7628 65.9022 40.9562 65.7761 42.1592L64.2669 42.0089ZM64.4543 35.0966C64.3926 33.9365 64.2892 32.7858 64.1359 31.6575L65.6525 31.4329C65.8148 32.6031 65.919 33.8085 65.9978 34.9977L64.4543 35.0966ZM63.5081 28.2558C63.2586 27.1384 62.9547 26.0224 62.6009 24.9288L64.0639 24.4531C64.4349 25.5758 64.7396 26.7465 64.998 27.9057L63.5081 28.2558ZM61.4187 21.6973C60.9903 20.6645 60.503 19.6122 59.9823 18.5565L61.3417 17.852C61.8797 18.9367 62.384 20.018 62.8213 21.0926L61.4187 21.6973ZM58.3379 15.518C57.7553 14.5313 57.1517 13.5493 56.5192 12.585L57.793 11.7353C58.4427 12.7287 59.0715 13.7268 59.6505 14.7473L58.3379 15.518ZM54.5633 9.72707C53.8807 8.78505 53.1818 7.86872 52.4702 6.94429L53.6799 5.99952C54.4042 6.93203 55.1076 7.8693 55.7901 8.81131L54.5633 9.72707ZM50.3235 4.21763C49.5747 3.32363 48.8467 2.42489 48.0978 1.5309L49.2651 0.54092C50.0139 1.43491 50.7628 2.32891 51.4952 3.24858L50.3235 4.21763Z" fill="#27CDC2"/>
<path d="M18.8359 86.7863L20.0538 85.8287L15.4735 79.903L21.7464 75.6657L20.9171 74.395L13.275 79.5475L18.8359 86.7863Z" fill="#27CDC2"/>
</g>
<defs>
<clipPath id="clip0">
<rect width="41.486" height="89.0656" fill="white" transform="translate(48.885 0.298218) rotate(32.5625)"/>
</clipPath>
</defs>
</svg>
