<?xml version="1.0" encoding="utf-8"?>
<!-- Generator: Adobe Illustrator 23.1.0, SVG Export Plug-In . SVG Version: 6.00 Build 0)  -->
<svg version="1.1" id="Слой_1" xmlns="http://www.w3.org/2000/svg" xmlns:xlink="http://www.w3.org/1999/xlink" x="0px" y="0px"
	 viewBox="0 0 28.7 54.3" style="enable-background:new 0 0 28.7 54.3;" xml:space="preserve">
<style type="text/css">
	.st0{fill:#103EB4;}
</style>
<g>
	<g>
		<path class="st0" d="M25.6,39c0,0-0.7,1.4-4.6,1.7c-2.9,0.2-3.8,2-4.1,3.1c-0.3,1.3-0.1,2.8,0.4,3.8l-2.2,1.5v-9.7h3.3
			c1.4,0,2.5-1.1,2.5-2.5c0-0.6-0.3-1.2-0.6-1.6c0.4-0.4,0.6-1,0.6-1.7c0-0.9-0.5-1.7-1.2-2.1c0.3-1.2,1-2,1.9-2.7
			c3.1-2.3,4.8-5.9,4.8-9.7c0-7.2-6.3-12.8-13.5-12C7.6,7.6,3.1,12,2.4,17.3C1.7,21.8,3.5,26,7,28.8c0.9,0.7,1.6,1.7,1.9,2.7
			c-0.7,0.4-1.2,1.2-1.2,2.1c0,0.6,0.3,1.2,0.6,1.6c-0.4,0.4-0.6,1-0.6,1.7c0,1.4,1.1,2.5,2.5,2.5h3.3v9.8l-2.2-1.5
			c0.5-1,0.8-2.5,0.4-3.8c-0.3-1.1-1.2-2.9-4.1-3.1C3.7,40.5,3.1,39,3.1,39c-0.2-0.6-0.9-0.8-1.4-0.4c-0.8,0.8-1.2,2.3-0.9,4.7
			c0.3,2.3,1.4,4.3,3.1,5.5c2.1,1.4,4.4,1.4,6.2,0l3.3,2.4v2.3c0,0.5,0.3,0.8,0.8,0.8s0.8-0.3,0.8-0.8v-2.2l3.3-2.4
			c4,2.9,8.8-0.7,9.3-5.5c0.3-2.4,0-3.9-0.9-4.7C26.5,38.3,25.8,38.4,25.6,39z M9.4,33.6c0-0.4,0.3-0.8,0.8-0.8h8.3
			c0.4,0,0.8,0.3,0.8,0.8c0,0.4-0.3,0.8-0.8,0.8h-8.3C9.8,34.4,9.4,34.1,9.4,33.6z M8.1,27.4C5,25,3.5,21.4,4,17.6
			c0.7-4.6,4.5-8.3,9.1-8.8c6.4-0.7,11.6,4.3,11.6,10.4c0,3.3-1.5,6.4-4.2,8.3c-1.2,0.9-2.1,2.1-2.5,3.7h-2.8v-9.8
			c0.3,0.1,0.6,0.1,0.9,0.1c0.8,0,1.7-0.3,2.4-0.9c0.3-0.3,0.3-0.8,0-1.2s-0.8-0.3-1.2,0c-0.6,0.6-1.7,0.6-2.3,0
			c-0.2-0.2-0.3-0.3-0.6-0.3c-0.3,0-0.4,0.1-0.6,0.3c-0.6,0.6-1.7,0.6-2.3,0c-0.3-0.3-0.8-0.3-1.2,0s-0.3,0.8,0,1.2
			c0.8,0.8,2.1,1.1,3.2,0.8v9.8h-2.9C10.2,29.7,9.3,28.3,8.1,27.4z M9.4,36.9c0-0.4,0.3-0.8,0.8-0.8h8.3c0.4,0,0.8,0.3,0.8,0.8
			c0,0.4-0.3,0.8-0.8,0.8h-8.3C9.8,37.8,9.4,37.4,9.4,36.9z M4.9,47.4c-1.4-0.9-2.2-2.5-2.5-4.3c-0.1-1-0.1-1.8,0-2.3
			C5.5,43.3,9,41.3,9.9,44c0.3,0.9,0.2,2-0.1,2.6l-3.4-2.5C6,43.9,5.5,44,5.3,44.3c-0.3,0.4-0.2,0.9,0.2,1.2l3.1,2.3
			C7.4,48.4,6.1,48.3,4.9,47.4z M26.2,43.2c-0.3,3.3-3.3,6.1-6.2,4.7l3.1-2.3c0.3-0.3,0.5-0.8,0.2-1.2c-0.3-0.4-0.8-0.5-1.2-0.2
			l-3.4,2.5C18.5,46,18.3,45,18.7,44c0.9-2.5,4.5-0.7,7.5-3.1C26.3,41.4,26.3,42.2,26.2,43.2z"/>
		<path class="st0" d="M14.3,4.9c0.5,0,0.8-0.3,0.8-0.8V0.8c0-0.5-0.3-0.8-0.8-0.8s-0.8,0.3-0.8,0.8v3.2C13.5,4.5,13.8,4.9,14.3,4.9
			z"/>
		<path class="st0" d="M20.1,6c0.4,0.2,0.9,0,1.1-0.4l1.2-3c0.2-0.4,0-0.9-0.4-1.1c-0.4-0.2-0.9,0-1.1,0.4l-1.2,3
			C19.4,5.3,19.7,5.9,20.1,6z"/>
		<path class="st0" d="M7.5,5.6C7.6,6,8.1,6.3,8.6,6C9,5.9,9.2,5.3,9,4.9L7.8,2C7.6,1.5,7.1,1.3,6.7,1.5C6.3,1.7,6,2.2,6.3,2.6
			L7.5,5.6z"/>
		<path class="st0" d="M28.4,5.9c-0.3-0.3-0.8-0.3-1.2,0l-2.3,2.3c-0.3,0.3-0.3,0.8,0,1.2c0.3,0.3,0.8,0.3,1.2,0L28.4,7
			C28.8,6.7,28.8,6.2,28.4,5.9z"/>
		<path class="st0" d="M3.7,9.3c0.3-0.3,0.3-0.8,0-1.2L1.4,5.9c-0.3-0.3-0.8-0.3-1.2,0c-0.3,0.3-0.3,0.8,0,1.2l2.3,2.3
			C2.9,9.7,3.4,9.7,3.7,9.3z"/>
	</g>
</g>
</svg>
