<?xml version="1.0" encoding="utf-8"?><svg xmlns="http://www.w3.org/2000/svg" xmlns:xlink="http://www.w3.org/1999/xlink"><symbol fill="none" viewBox="0 0 12 11" id="arrow" xmlns="http://www.w3.org/2000/svg"><path d="M9.625.498H3.372C2.064.498.998 1.505.998 2.742V8.65c0 1.237 1.066 2.243 2.374 2.243h6.253c1.308 0 2.373-1.006 2.373-2.243V2.74c0-1.236-1.065-2.243-2.373-2.243zm-.429 5.428L7.413 7.611a.343.343 0 01-.243.099.364.364 0 01-.243-.099.311.311 0 010-.448l1.216-1.15H4.032a.327.327 0 01-.336-.317c0-.175.15-.317.336-.317h4.11L6.939 4.241a.311.311 0 010-.449.357.357 0 01.475 0l1.783 1.685c.14.12.14.318 0 .45z" fill="#103EB4"/></symbol><symbol fill="none" viewBox="0 0 46 48" id="blank" xmlns="http://www.w3.org/2000/svg"><path d="M32.947 6.195h-4.388c-.331-1.549-1.821-2.729-3.642-2.729h-3.311C21.192 1.475 19.205 0 16.887 0c-2.318 0-4.304 1.475-4.718 3.466H8.857c-1.82 0-3.31 1.18-3.642 2.73H.828C.33 6.195 0 6.49 0 6.932v39.53c0 .443.331.738.828.738h32.036c.496 0 .828-.295.828-.738V6.933c.082-.443-.332-.738-.745-.738zm-26.159.59c0-1.032.91-1.844 2.07-1.844h4.056c.496 0 .828-.295.828-.737 0-1.549 1.407-2.729 3.145-2.729s3.063 1.254 3.063 2.729c0 .442.331.737.828.737h4.056c1.159 0 2.07.812 2.07 1.844V8.63H6.788V6.785zm25.33 38.94H1.657V7.67h3.476v1.696c0 .443.331.738.828.738h21.854c.497 0 .828-.295.828-.738V7.67h3.477v38.056z" fill="#103EB4"/><path d="M11.34 13.201c-1.655.664-3.145 1.992-4.138 3.614l-.91-.885a.87.87 0 00-1.16 0c-.33.295-.33.738 0 1.033l1.822 1.622c.413.369 1.158.221 1.324-.221a7.98 7.98 0 013.808-3.835.703.703 0 00.414-.959c-.249-.369-.745-.59-1.16-.369zm0 15.857c-1.655.664-3.145 1.991-4.138 3.614l-.91-.885a.87.87 0 00-1.16 0c-.33.295-.33.737 0 1.032l1.822 1.623c.413.369 1.158.221 1.324-.221a7.98 7.98 0 013.808-3.835.703.703 0 00.414-.96 1.011 1.011 0 00-1.16-.368zm16.723-14.087H16.639c-.497 0-.828.295-.828.738 0 .442.331.737.828.737h11.506c.497 0 .828-.295.828-.737a.937.937 0 00-.91-.738zm0 8.039H16.639c-.497 0-.828.295-.828.738 0 .442.331.737.828.737h11.506c.497 0 .828-.295.828-.737a.937.937 0 00-.91-.738zm0 8.04H16.639c-.497 0-.828.294-.828.737 0 .442.331.737.828.737h11.506c.497 0 .828-.295.828-.737a.937.937 0 00-.91-.738zm0 8.038H16.639c-.497 0-.828.295-.828.738 0 .442.331.737.828.737h11.506c.497 0 .828-.295.828-.737a.937.937 0 00-.91-.738zM5.463 25.96a.87.87 0 001.16 0l1.241-1.106 1.242 1.106a.87.87 0 001.159 0c.33-.295.33-.737 0-1.032L9.023 23.82l1.242-1.106c.33-.295.33-.737 0-1.032a.87.87 0 00-1.16 0l-1.24 1.106-1.243-1.106a.87.87 0 00-1.159 0c-.33.295-.33.737 0 1.032l1.242 1.107-1.242 1.106c-.33.295-.33.737 0 1.032zm4.885 11.727a.87.87 0 00-1.16 0l-1.241 1.106-1.242-1.106a.87.87 0 00-1.159 0c-.33.295-.33.737 0 1.032l1.242 1.107-1.325 1.18c-.33.295-.33.737 0 1.032a.87.87 0 001.16 0l1.241-1.106 1.242 1.106a.87.87 0 001.159 0c.33-.295.33-.737 0-1.032l-1.242-1.18 1.242-1.107c.414-.295.414-.737.082-1.032zM43.873 6.195h-5.629c-.993 0-1.738.664-1.738 1.475 0 .074 0 34.81.083 32.524l3.725 6.638c.331.516 1.159.516 1.49 0 4.056-7.228 3.808-6.711 3.808-6.933V7.67c.083-.811-.745-1.475-1.739-1.475zM41.97 39.088v-26.55h2.07v26.55h-2.07zm-3.726 0v-26.55h2.07v26.55h-2.07zm.083-31.418h5.712v3.393h-5.795V7.67c0 .074 0 0 .083 0zm2.815 37.17l-2.4-4.277h4.8l-2.4 4.278z" fill="#103EB4"/></symbol><symbol fill="none" viewBox="0 0 84 98" id="dashed" xmlns="http://www.w3.org/2000/svg"><g clip-path="url(#ca)" fill="#27CDC2"><path d="M14.734 80.642l.302-1.506c1.117.206 2.258.375 3.406.475l-.168 1.52a38.898 38.898 0 01-3.54-.49zm7.093.679l.033-1.533c1.14.004 2.303-.03 3.444-.115L25.4 81.2a34.956 34.956 0 01-3.573.122zm7.114-.5l-.213-1.51a37.067 37.067 0 003.39-.673l.33 1.494a56.58 56.58 0 01-3.507.689zm6.952-1.67l-.455-1.466c1.096-.349 2.18-.76 3.245-1.2l.563 1.408c-1.09.479-2.227.891-3.353 1.257zm6.616-2.736l-.676-1.371a39.707 39.707 0 003.016-1.707l.792 1.3a42.764 42.764 0 01-3.132 1.778zm6.107-3.782l-.887-1.236a42.248 42.248 0 002.708-2.175l1 1.145a41.626 41.626 0 01-2.82 2.266zm5.4-4.74l-1.09-1.058c.276-.294.56-.6.845-.906.495-.552.986-1.124 1.443-1.7l1.176.95c-.494.606-.98 1.2-1.504 1.769-.28.327-.565.633-.87.944zm4.512-5.615l-1.263-.843c.156-.244.324-.48.48-.724.468-.731.91-1.48 1.339-2.236l1.329.74a40.33 40.33 0 01-1.376 2.321 8.818 8.818 0 00-.509.742zm2.1-6.92a43.863 43.863 0 001.305-3.216l1.43.498a48.632 48.632 0 01-1.344 3.335l-1.39-.617zm2.35-6.526c.298-1.11.56-2.246.774-3.392l1.49.265a39.298 39.298 0 01-.807 3.497l-1.458-.37zm1.289-6.823c.127-1.148.208-2.308.234-3.466l1.516.028a45.33 45.33 0 01-.24 3.588l-1.51-.15zm.187-6.912a42.254 42.254 0 00-.318-3.44l1.517-.224c.162 1.17.266 2.376.345 3.565l-1.544.099zm-.946-6.841a37.106 37.106 0 00-.907-3.327l1.463-.476c.37 1.123.676 2.294.934 3.453l-1.49.35zm-2.09-6.559a53.435 53.435 0 00-1.436-3.14l1.36-.705a48.407 48.407 0 011.48 3.24l-1.403.605zm-3.08-6.179a73.24 73.24 0 00-1.819-2.933l1.274-.85a56.37 56.37 0 011.858 3.012l-1.313.771zm-3.775-5.79a119.76 119.76 0 00-2.093-2.784L53.68 6c.724.932 1.428 1.87 2.11 2.811l-1.227.916zm-4.24-5.51c-.748-.894-1.476-1.793-2.225-2.687l1.167-.99c.749.894 1.498 1.788 2.23 2.708l-1.171.969z"/><path d="M18.836 86.786l1.218-.957-4.58-5.926 6.272-4.237-.829-1.271-7.642 5.153 5.56 7.238z"/></g><defs><clipPath id="ca"><path fill="#fff" transform="rotate(32.563 23.932 83.838)" d="M0 0h41.486v89.066H0z"/></clipPath></defs></symbol><symbol fill="none" viewBox="0 0 58 72" id="head" xmlns="http://www.w3.org/2000/svg"><path d="M49.036 31.418c.528-2.182.44-3.665.44-3.753-.088-5.934-2.637-10.996-7.47-14.661-1.845-1.397-3.779-2.444-5.976-3.142l1.846-2.095c.527-.523.088-1.483-.615-1.483h-4.922l2.637-4.102a.788.788 0 000-.873c-.088-.262-.352-.436-.703-.436h-7.91c-.35 0-.614.174-.79.523L21.793 9.6c-10.632 3.316-11.072 13.265-11.072 13.44-.088 4.015.352 5.236-.527 6.895l-1.318 2.53-.791 1.746-2.637 5.236a.86.86 0 00.791 1.222h4.57v7.07c0 1.483.44 2.792 1.406 3.665 1.758 1.745 4.658 1.745 4.746 1.745h3.778v2.706c0 .523.352.872.88.872.526 0 .878-.349.878-.872V52.45c0-.524-.352-.873-.879-.873h-4.657c-2.373 0-4.394-1.222-4.394-3.753v-7.941c0-.524-.352-.873-.88-.873H7.646l2.373-4.8.879-1.833.879-1.745c1.142-2.27.615-3.84.703-7.68 0-.35.351-7.855 8.26-11.171l-.527 1.309a.86.86 0 00.791 1.222h5.01l-2.462 7.069c-.351.872.88 1.57 1.494.872l9.843-10.996c2.197.698 4.306 1.746 6.151 3.142 4.394 3.404 6.68 7.854 6.767 13.353 0 0 .088 1.483-.527 3.665l-.615 1.833a23.176 23.176 0 01-4.394 7.069c-1.23 1.309-1.846 3.054-1.846 4.8v10.735c0 .523.352.872.879.872s.879-.349.879-.872V45.032c0-1.31.527-2.619 1.406-3.666 2.636-2.967 4.13-5.847 4.921-8.203l.527-1.746zm-22.32-13.614l1.405-4.102c.176-.524-.263-1.135-.79-1.135h-4.834l4.482-9.949h5.8L30.142 6.72c-.351.61.088 1.309.703 1.309h4.57l-8.7 9.775z" fill="#103EB4"/></symbol><symbol fill="none" viewBox="0 0 56 70" id="light" xmlns="http://www.w3.org/2000/svg"><g clip-path="url(#ea)" fill="#103EB4"><path d="M39.285 39.879s-.679 1.442-4.582 1.697c-2.885.17-3.818 2.036-4.073 3.054-.34 1.273-.084 2.8.425 3.819l-2.206 1.527v-9.673h3.309c1.357 0 2.46-1.103 2.46-2.545 0-.594-.254-1.188-.594-1.613.425-.424.594-1.018.594-1.697 0-.933-.509-1.696-1.188-2.12.34-1.189 1.019-2.037 1.867-2.716a12.056 12.056 0 004.836-9.673c0-7.212-6.278-12.812-13.49-12.048-5.43.594-9.843 4.921-10.607 10.267-.678 4.497 1.103 8.739 4.667 11.454.933.679 1.612 1.697 1.867 2.715a2.498 2.498 0 00-1.188 2.122c0 .593.254 1.187.594 1.612-.424.424-.594 1.018-.594 1.697a2.462 2.462 0 002.46 2.46h3.31v9.758l-2.207-1.527c.51-1.019.764-2.461.425-3.819-.255-1.103-1.188-2.885-4.073-3.054-3.903-.255-4.582-1.697-4.582-1.697-.17-.594-.933-.849-1.357-.424-.849.763-1.188 2.29-.934 4.666.255 2.291 1.358 4.328 3.14 5.515 2.12 1.443 4.412 1.358 6.194 0l3.309 2.376v2.291c0 .51.34.849.848.849.51 0 .849-.34.849-.849v-2.206l3.309-2.376c3.988 2.885 8.824-.678 9.333-5.515.255-2.376 0-3.903-.933-4.667-.34-.424-1.018-.254-1.188.34zm-16.206-5.43a.76.76 0 01.763-.764h8.316c.424 0 .763.34.763.848a.76.76 0 01-.763.764h-8.316c-.424 0-.763-.34-.763-.848zm-1.358-6.194c-3.054-2.376-4.582-6.025-4.073-9.843.68-4.582 4.497-8.315 9.08-8.824 6.363-.679 11.623 4.327 11.623 10.351 0 3.31-1.527 6.364-4.157 8.316-1.188.933-2.121 2.12-2.546 3.733h-2.8V22.23c.255.085.594.085.934.085.848 0 1.697-.34 2.376-.933a.82.82 0 000-1.188.82.82 0 00-1.188 0c-.594.594-1.697.594-2.291 0a.77.77 0 00-.594-.255.77.77 0 00-.594.255c-.594.594-1.697.594-2.291 0a.82.82 0 00-1.188 0 .82.82 0 000 1.188c.849.848 2.121 1.103 3.224.848v9.758h-2.884c-.51-1.442-1.358-2.8-2.63-3.733zm1.358 9.503a.76.76 0 01.763-.764h8.316c.424 0 .763.34.763.849a.76.76 0 01-.763.763h-8.316c-.424 0-.763-.34-.763-.848zm-4.497 10.52c-1.358-.932-2.206-2.545-2.46-4.326-.086-1.019-.086-1.782 0-2.291 3.054 2.46 6.533.509 7.466 3.139.34.933.17 1.952-.085 2.63l-3.394-2.46c-.424-.255-.933-.17-1.188.17-.254.424-.17.933.17 1.187l3.14 2.291c-1.189.679-2.461.51-3.65-.34zm21.297-4.242c-.34 3.31-3.31 6.11-6.194 4.667l3.14-2.29c.339-.255.508-.764.169-1.189-.255-.424-.764-.509-1.188-.17l-3.394 2.461c-.254-.679-.424-1.697-.085-2.63.934-2.546 4.497-.679 7.467-3.14.17.51.17 1.273.085 2.291zM28 5.77c.51 0 .849-.34.849-.849V1.697c0-.51-.34-.848-.849-.848-.51 0-.849.339-.849.848v3.224c0 .424.34.849.849.849zm5.77 1.103c.424.17.933 0 1.103-.424l1.188-2.97c.17-.424 0-.933-.425-1.103-.424-.17-.933 0-1.103.424l-1.188 2.97c-.254.424 0 .933.425 1.103zm-12.643-.425c.17.425.68.68 1.103.425.425-.17.68-.68.425-1.103L21.467 2.8c-.17-.424-.68-.679-1.103-.424-.425.17-.68.679-.425 1.103l1.188 2.97zm20.958.255a.82.82 0 00-1.188 0l-2.29 2.29a.82.82 0 000 1.189.82.82 0 001.187 0l2.29-2.291a.82.82 0 000-1.188zm-24.691 3.479a.82.82 0 000-1.188l-2.291-2.291a.82.82 0 00-1.188 0 .82.82 0 000 1.188l2.291 2.29a.82.82 0 001.188 0z"/></g><defs><clipPath id="ea"><path fill="#fff" d="M0 0h56v70H0z"/></clipPath></defs></symbol><symbol fill="none" viewBox="0 0 27 61" id="mouse" xmlns="http://www.w3.org/2000/svg"><path d="M.25 36.516V23.924c0-6.771 5.946-12.341 13.25-12.341s13.25 5.57 13.25 12.341v12.592c0 6.771-5.946 12.342-13.25 12.342S.25 43.288.25 36.516zm24-12.592c0-5.54-4.854-10.043-10.75-10.043S2.75 18.384 2.75 23.924v12.592c0 5.54 4.854 10.044 10.75 10.044s10.75-4.503 10.75-10.044V23.924z" fill="#fff" stroke="#1241B9" stroke-width=".5"/><path d="M14.75 24.176c0 .56-.533 1.072-1.25 1.072s-1.25-.512-1.25-1.072V20.21c0-.56.533-1.072 1.25-1.072s1.25.511 1.25 1.072v3.966zm-1.425 33.421l.175.171.175-.171 2.314-2.267a1.011 1.011 0 011.45 0c.415.406.415 1 0 1.406l-3.214 3.148c-.211.207-.47.306-.725.306s-.514-.099-.725-.306L9.56 56.736c-.415-.405-.415-1 0-1.405a1.011 1.011 0 011.45 0l2.314 2.266zm.35-54.754l-.175-.17-.175.17-2.314 2.267c-.212.207-.47.306-.725.306s-.514-.1-.725-.306c-.415-.406-.415-1 0-1.406L12.775.556a1.011 1.011 0 011.45 0l3.214 3.148c.415.406.415 1 0 1.406a1.03 1.03 0 01-.725.306c-.254 0-.513-.1-.725-.306l-2.314-2.267z" fill="#fff" stroke="#1241B9" stroke-width=".5"/></symbol><symbol fill="none" viewBox="0 0 52 65" id="pdf" xmlns="http://www.w3.org/2000/svg"><g clip-path="url(#ga)" fill="#fff"><path d="M44.444 12.431l-9.75-9.75a.765.765 0 00-.569-.243H10.449a3.153 3.153 0 00-3.136 3.136v15.551a.813.813 0 001.625 0V5.574a1.511 1.511 0 011.51-1.511h22.864V13a.813.813 0 00.813.813h8.938v32.613a1.511 1.511 0 01-1.512 1.512H10.45a1.511 1.511 0 01-1.511-1.512V42.25a.813.813 0 00-1.626 0v4.176a3.153 3.153 0 003.137 3.137h31.1a3.153 3.153 0 003.136-3.137V13a.763.763 0 00-.243-.569zm-9.507-7.215l6.972 6.972h-6.971V5.216z"/><path d="M20.573 28.779h-1.43v5.8h1.624a3.478 3.478 0 002.373-.73 2.796 2.796 0 00.813-2.162c-.05-1.95-1.203-2.908-3.38-2.908zm-8.272-.033H10.84v3.396h1.625a2.16 2.16 0 001.625-.455 1.852 1.852 0 00.536-1.332 1.413 1.413 0 00-.553-1.251 3.25 3.25 0 00-1.77-.358z"/><path d="M38.188 37.18V26.195a2.618 2.618 0 00-2.633-2.632H6.695a2.616 2.616 0 00-2.633 2.632V37.18a2.616 2.616 0 002.633 2.633h28.86a2.617 2.617 0 002.633-2.633zm-23.076-4.452a4.421 4.421 0 01-2.762.715h-1.511v2.486h-1.43v-8.483h2.909a4.241 4.241 0 012.81.748 2.762 2.762 0 01.895 2.275 2.73 2.73 0 01-.91 2.259zm9.052 2.047a5.102 5.102 0 01-3.64 1.154h-2.812v-8.483h2.91a4.988 4.988 0 013.493 1.122 3.932 3.932 0 011.235 3.07 4.21 4.21 0 01-1.186 3.137zm8.661-5.996h-4.209v2.34h3.754V32.5h-3.754v3.494h-1.43v-8.548h5.655l-.016 1.333z"/></g><defs><clipPath id="ga"><path fill="#fff" d="M0 0h52v65H0z"/></clipPath></defs></symbol><symbol fill="none" viewBox="0 0 23 17" id="youtube" xmlns="http://www.w3.org/2000/svg"><path d="M4.025 0C1.805 0 0 1.779 0 3.967v9.066C0 15.221 1.805 17 4.025 17h14.95C21.195 17 23 15.221 23 13.033V3.967C23 1.779 21.195 0 18.975 0H4.025zm0 1.133h14.95c1.603 0 2.875 1.254 2.875 2.834v9.066c0 1.58-1.272 2.834-2.875 2.834H4.025c-1.603 0-2.875-1.254-2.875-2.834V3.967c0-1.58 1.272-2.834 2.875-2.834zM8.877 4.25a.579.579 0 00-.384.178.562.562 0 00-.155.389v7.366c-.001.14.05.276.145.38a.578.578 0 00.699.125l6.9-3.683a.571.571 0 00.305-.5.56.56 0 00-.305-.5l-6.9-3.684a.582.582 0 00-.305-.071zm.61 1.523L14.61 8.5l-5.121 2.736V5.773z" fill="#fff" fill-opacity=".7"/></symbol></svg>