<?xml version="1.0" encoding="utf-8"?><svg xmlns="http://www.w3.org/2000/svg" xmlns:xlink="http://www.w3.org/1999/xlink"><symbol fill="none" viewBox="0 0 12 11" id="arrow" xmlns="http://www.w3.org/2000/svg"><path d="M9.625.498H3.372C2.064.498.998 1.505.998 2.742V8.65c0 1.237 1.066 2.243 2.374 2.243h6.253c1.308 0 2.373-1.006 2.373-2.243V2.74c0-1.236-1.065-2.243-2.373-2.243zm-.429 5.428L7.413 7.611a.343.343 0 01-.243.099.364.364 0 01-.243-.099.311.311 0 010-.448l1.216-1.15H4.032a.327.327 0 01-.336-.317c0-.175.15-.317.336-.317h4.11L6.939 4.241a.311.311 0 010-.449.357.357 0 01.475 0l1.783 1.685c.14.12.14.318 0 .45z" fill="#103EB4"/></symbol><symbol fill="none" viewBox="0 0 46 48" id="blank" xmlns="http://www.w3.org/2000/svg"><path d="M32.947 6.195h-4.388c-.331-1.549-1.821-2.729-3.642-2.729h-3.311C21.192 1.475 19.205 0 16.887 0c-2.318 0-4.304 1.475-4.718 3.466H8.857c-1.82 0-3.31 1.18-3.642 2.73H.828C.33 6.195 0 6.49 0 6.932v39.53c0 .443.331.738.828.738h32.036c.496 0 .828-.295.828-.738V6.933c.082-.443-.332-.738-.745-.738zm-26.159.59c0-1.032.91-1.844 2.07-1.844h4.056c.496 0 .828-.295.828-.737 0-1.549 1.407-2.729 3.145-2.729s3.063 1.254 3.063 2.729c0 .442.331.737.828.737h4.056c1.159 0 2.07.812 2.07 1.844V8.63H6.788V6.785zm25.33 38.94H1.657V7.67h3.476v1.696c0 .443.331.738.828.738h21.854c.497 0 .828-.295.828-.738V7.67h3.477v38.056z" fill="#103EB4"/><path d="M11.34 13.201c-1.655.664-3.145 1.992-4.138 3.614l-.91-.885a.87.87 0 00-1.16 0c-.33.295-.33.738 0 1.033l1.822 1.622c.413.369 1.158.221 1.324-.221a7.98 7.98 0 013.808-3.835.703.703 0 00.414-.959c-.249-.369-.745-.59-1.16-.369zm0 15.857c-1.655.664-3.145 1.991-4.138 3.614l-.91-.885a.87.87 0 00-1.16 0c-.33.295-.33.737 0 1.032l1.822 1.623c.413.369 1.158.221 1.324-.221a7.98 7.98 0 013.808-3.835.703.703 0 00.414-.96 1.011 1.011 0 00-1.16-.368zm16.723-14.087H16.639c-.497 0-.828.295-.828.738 0 .442.331.737.828.737h11.506c.497 0 .828-.295.828-.737a.937.937 0 00-.91-.738zm0 8.039H16.639c-.497 0-.828.295-.828.738 0 .442.331.737.828.737h11.506c.497 0 .828-.295.828-.737a.937.937 0 00-.91-.738zm0 8.04H16.639c-.497 0-.828.294-.828.737 0 .442.331.737.828.737h11.506c.497 0 .828-.295.828-.737a.937.937 0 00-.91-.738zm0 8.038H16.639c-.497 0-.828.295-.828.738 0 .442.331.737.828.737h11.506c.497 0 .828-.295.828-.737a.937.937 0 00-.91-.738zM5.463 25.96a.87.87 0 001.16 0l1.241-1.106 1.242 1.106a.87.87 0 001.159 0c.33-.295.33-.737 0-1.032L9.023 23.82l1.242-1.106c.33-.295.33-.737 0-1.032a.87.87 0 00-1.16 0l-1.24 1.106-1.243-1.106a.87.87 0 00-1.159 0c-.33.295-.33.737 0 1.032l1.242 1.107-1.242 1.106c-.33.295-.33.737 0 1.032zm4.885 11.727a.87.87 0 00-1.16 0l-1.241 1.106-1.242-1.106a.87.87 0 00-1.159 0c-.33.295-.33.737 0 1.032l1.242 1.107-1.325 1.18c-.33.295-.33.737 0 1.032a.87.87 0 001.16 0l1.241-1.106 1.242 1.106a.87.87 0 001.159 0c.33-.295.33-.737 0-1.032l-1.242-1.18 1.242-1.107c.414-.295.414-.737.082-1.032zM43.873 6.195h-5.629c-.993 0-1.738.664-1.738 1.475 0 .074 0 34.81.083 32.524l3.725 6.638c.331.516 1.159.516 1.49 0 4.056-7.228 3.808-6.711 3.808-6.933V7.67c.083-.811-.745-1.475-1.739-1.475zM41.97 39.088v-26.55h2.07v26.55h-2.07zm-3.726 0v-26.55h2.07v26.55h-2.07zm.083-31.418h5.712v3.393h-5.795V7.67c0 .074 0 0 .083 0zm2.815 37.17l-2.4-4.277h4.8l-2.4 4.278z" fill="#103EB4"/></symbol><symbol fill="none" viewBox="0 0 84 98" id="dashed" xmlns="http://www.w3.org/2000/svg"><g clip-path="url(#ca)" fill="#27CDC2"><path d="M14.734 80.642l.302-1.506c1.117.206 2.258.375 3.406.475l-.168 1.52a38.898 38.898 0 01-3.54-.49zm7.093.679l.033-1.533c1.14.004 2.303-.03 3.444-.115L25.4 81.2a34.956 34.956 0 01-3.573.122zm7.114-.5l-.213-1.51a37.067 37.067 0 003.39-.673l.33 1.494a56.58 56.58 0 01-3.507.689zm6.952-1.67l-.455-1.466c1.096-.349 2.18-.76 3.245-1.2l.563 1.408c-1.09.479-2.227.891-3.353 1.257zm6.616-2.736l-.676-1.371a39.707 39.707 0 003.016-1.707l.792 1.3a42.764 42.764 0 01-3.132 1.778zm6.107-3.782l-.887-1.236a42.248 42.248 0 002.708-2.175l1 1.145a41.626 41.626 0 01-2.82 2.266zm5.4-4.74l-1.09-1.058c.276-.294.56-.6.845-.906.495-.552.986-1.124 1.443-1.7l1.176.95c-.494.606-.98 1.2-1.504 1.769-.28.327-.565.633-.87.944zm4.512-5.615l-1.263-.843c.156-.244.324-.48.48-.724.468-.731.91-1.48 1.339-2.236l1.329.74a40.33 40.33 0 01-1.376 2.321 8.818 8.818 0 00-.509.742zm2.1-6.92a43.863 43.863 0 001.305-3.216l1.43.498a48.632 48.632 0 01-1.344 3.335l-1.39-.617zm2.35-6.526c.298-1.11.56-2.246.774-3.392l1.49.265a39.298 39.298 0 01-.807 3.497l-1.458-.37zm1.289-6.823c.127-1.148.208-2.308.234-3.466l1.516.028a45.33 45.33 0 01-.24 3.588l-1.51-.15zm.187-6.912a42.254 42.254 0 00-.318-3.44l1.517-.224c.162 1.17.266 2.376.345 3.565l-1.544.099zm-.946-6.841a37.106 37.106 0 00-.907-3.327l1.463-.476c.37 1.123.676 2.294.934 3.453l-1.49.35zm-2.09-6.559a53.435 53.435 0 00-1.436-3.14l1.36-.705a48.407 48.407 0 011.48 3.24l-1.403.605zm-3.08-6.179a73.24 73.24 0 00-1.819-2.933l1.274-.85a56.37 56.37 0 011.858 3.012l-1.313.771zm-3.775-5.79a119.76 119.76 0 00-2.093-2.784L53.68 6c.724.932 1.428 1.87 2.11 2.811l-1.227.916zm-4.24-5.51c-.748-.894-1.476-1.793-2.225-2.687l1.167-.99c.749.894 1.498 1.788 2.23 2.708l-1.171.969z"/><path d="M18.836 86.786l1.218-.957-4.58-5.926 6.272-4.237-.829-1.271-7.642 5.153 5.56 7.238z"/></g><defs><clipPath id="ca"><path fill="#fff" transform="rotate(32.563 23.932 83.838)" d="M0 0h41.486v89.066H0z"/></clipPath></defs></symbol><symbol fill="none" viewBox="0 0 69 97" id="dashed-right" xmlns="http://www.w3.org/2000/svg"><g clip-path="url(#da)" fill="#27CDC2"><path d="M53.727 84.452l.052-1.51a36.28 36.28 0 01-3.411-.279l-.185 1.494a39.11 39.11 0 003.544.295zm-7.032-.88l.318-1.477a44.802 44.802 0 01-3.313-.854l-.442 1.443a34.94 34.94 0 003.436.889zm-6.784-2.015l.552-1.403a36.678 36.678 0 01-3.133-1.377l-.662 1.362c1.072.508 2.148.982 3.243 1.418zm-6.358-3.103l.777-1.308a40.53 40.53 0 01-2.872-1.852l-.868 1.23a35.687 35.687 0 002.963 1.93zm-5.788-4.052l.97-1.17a38.654 38.654 0 01-2.534-2.29l-1.066 1.078a41.77 41.77 0 002.63 2.382zm-5.055-4.948l1.143-.994a40.99 40.99 0 01-2.128-2.67l-1.23.881c.71.97 1.44 1.9 2.215 2.783zm-4.15-5.714l1.3-.779a152.89 152.89 0 01-.613-1.052 35.79 35.79 0 01-1.01-1.942l-1.358.658c.34.688.676 1.362 1.053 2.021.197.375.403.73.628 1.094zm-3.09-6.36l1.418-.536c-.095-.268-.204-.53-.3-.798a48.393 48.393 0 01-.786-2.434l-1.457.423c.239.851.506 1.693.802 2.524.123.257.223.54.323.821zm-.451-7.092a42.47 42.47 0 01-.529-3.367l-1.5.168c.13 1.176.324 2.345.54 3.49l1.489-.291zm-.783-6.768a43.477 43.477 0 01.026-3.422l-1.505-.067a38.14 38.14 0 00-.02 3.53l1.5-.041zm.312-6.825c.14-1.129.328-2.258.567-3.375l-1.476-.3a44.246 44.246 0 00-.588 3.494l1.497.181zm1.402-6.672c.325-1.1.689-2.18 1.096-3.23l-1.42-.543a49.543 49.543 0 00-1.15 3.345l1.474.428zm2.484-6.358a36.827 36.827 0 011.641-2.996l-1.31-.772a35.808 35.808 0 00-1.696 3.11l1.365.658zm3.528-5.841a53.332 53.332 0 012.111-2.703l-1.156-.97a48.425 48.425 0 00-2.177 2.79l1.222.883zm4.402-5.263a73.67 73.67 0 012.435-2.421l-1.04-1.09a56.347 56.347 0 00-2.491 2.488l1.096 1.023zM31.35 7.82a121.38 121.38 0 012.666-2.218l-.956-1.167a103.32 103.32 0 00-2.69 2.242l.98 1.143zm5.372-4.37c.931-.696 1.843-1.401 2.774-2.097L38.59.15c-.931.696-1.862 1.392-2.783 2.116l.914 1.183z"/><path d="M48.343 89.462l-.962-1.182 5.798-4.696-5.111-5.42 1.095-1.04 6.23 6.593-7.05 5.745z"/></g><defs><clipPath id="da"><path fill="#fff" transform="scale(-1 1) rotate(19.575 -19.507 -113.084)" d="M0 0h41.408v87.416H0z"/></clipPath></defs></symbol><symbol id="head" viewBox="0 0 44.1 55.9" xmlns="http://www.w3.org/2000/svg"><style>.est0{fill:#103eb4}</style><path class="est0" d="M43.7 30.5c.5-2.2.4-3.7.4-3.8-.1-5.9-2.6-11-7.5-14.7-1.8-1.4-3.8-2.4-6-3.1l1.8-2.1c.5-.5.1-1.5-.6-1.5H27l2.6-4.1c.2-.3.2-.6 0-.9-.1-.1-.3-.3-.7-.3H21c-.4 0-.6.2-.8.5l-3.8 8.2C5.8 12 5.4 22 5.4 22.2c-.1 4 .4 5.2-.5 6.9l-1.3 2.5-.8 1.7-2.6 5.2c-.3.6.2 1.2.8 1.2h4.6v7.1c0 1.5.4 2.8 1.4 3.7 1.8 1.7 4.7 1.7 4.7 1.7h3.8V55c0 .5.4.9.9.9s.9-.3.9-.9v-3.4c0-.5-.4-.9-.9-.9h-4.7c-2.4 0-4.4-1.2-4.4-3.8V39c0-.5-.4-.9-.9-.9h-4l2.4-4.8.9-1.8.9-1.7c1.1-2.3.6-3.8.7-7.7 0-.3.4-7.9 8.3-11.2l-.5 1.3c-.3.6.2 1.2.8 1.2h5l-2.5 7.1c-.4.9.9 1.6 1.5.9l9.8-11c2.2.7 4.3 1.7 6.2 3.1 4.4 3.4 6.7 7.9 6.8 13.4 0 0 .1 1.5-.5 3.7l-.6 1.8c-.8 2-2.1 4.5-4.4 7.1-1.2 1.3-1.8 3.1-1.8 4.8V55c0 .5.4.9.9.9s.9-.3.9-.9V44.2c0-1.3.5-2.6 1.4-3.7 2.6-3 4.1-5.8 4.9-8.2l.2-1.8zM21.3 16.9l1.4-4.1c.2-.5-.3-1.1-.8-1.1h-4.8l4.5-9.9h5.8l-2.6 4.1c-.4.6.1 1.3.7 1.3H30l-8.7 9.7z"/></symbol><symbol id="light" viewBox="0 0 28.7 54.3" xmlns="http://www.w3.org/2000/svg"><style>.fst0{fill:#103eb4}</style><path class="fst0" d="M25.6 39s-.7 1.4-4.6 1.7c-2.9.2-3.8 2-4.1 3.1-.3 1.3-.1 2.8.4 3.8l-2.2 1.5v-9.7h3.3c1.4 0 2.5-1.1 2.5-2.5 0-.6-.3-1.2-.6-1.6.4-.4.6-1 .6-1.7 0-.9-.5-1.7-1.2-2.1.3-1.2 1-2 1.9-2.7 3.1-2.3 4.8-5.9 4.8-9.7 0-7.2-6.3-12.8-13.5-12-5.3.5-9.8 4.9-10.5 10.2C1.7 21.8 3.5 26 7 28.8c.9.7 1.6 1.7 1.9 2.7-.7.4-1.2 1.2-1.2 2.1 0 .6.3 1.2.6 1.6-.4.4-.6 1-.6 1.7 0 1.4 1.1 2.5 2.5 2.5h3.3v9.8l-2.2-1.5c.5-1 .8-2.5.4-3.8-.3-1.1-1.2-2.9-4.1-3.1-3.9-.3-4.5-1.8-4.5-1.8-.2-.6-.9-.8-1.4-.4-.8.8-1.2 2.3-.9 4.7.3 2.3 1.4 4.3 3.1 5.5 2.1 1.4 4.4 1.4 6.2 0l3.3 2.4v2.3c0 .5.3.8.8.8s.8-.3.8-.8v-2.2l3.3-2.4c4 2.9 8.8-.7 9.3-5.5.3-2.4 0-3.9-.9-4.7-.2-.4-.9-.3-1.1.3zM9.4 33.6c0-.4.3-.8.8-.8h8.3c.4 0 .8.3.8.8 0 .4-.3.8-.8.8h-8.3c-.4 0-.8-.3-.8-.8zm-1.3-6.2C5 25 3.5 21.4 4 17.6c.7-4.6 4.5-8.3 9.1-8.8 6.4-.7 11.6 4.3 11.6 10.4 0 3.3-1.5 6.4-4.2 8.3-1.2.9-2.1 2.1-2.5 3.7h-2.8v-9.8c.3.1.6.1.9.1.8 0 1.7-.3 2.4-.9.3-.3.3-.8 0-1.2s-.8-.3-1.2 0c-.6.6-1.7.6-2.3 0-.2-.2-.3-.3-.6-.3s-.4.1-.6.3c-.6.6-1.7.6-2.3 0-.3-.3-.8-.3-1.2 0s-.3.8 0 1.2c.8.8 2.1 1.1 3.2.8v9.8h-2.9c-.4-1.5-1.3-2.9-2.5-3.8zm1.3 9.5c0-.4.3-.8.8-.8h8.3c.4 0 .8.3.8.8 0 .4-.3.8-.8.8h-8.3c-.4.1-.8-.3-.8-.8zM4.9 47.4c-1.4-.9-2.2-2.5-2.5-4.3-.1-1-.1-1.8 0-2.3 3.1 2.5 6.6.5 7.5 3.2.3.9.2 2-.1 2.6l-3.4-2.5c-.4-.2-.9-.1-1.1.2-.3.4-.2.9.2 1.2l3.1 2.3c-1.2.6-2.5.5-3.7-.4zm21.3-4.2c-.3 3.3-3.3 6.1-6.2 4.7l3.1-2.3c.3-.3.5-.8.2-1.2-.3-.4-.8-.5-1.2-.2l-3.4 2.5c-.2-.7-.4-1.7 0-2.7.9-2.5 4.5-.7 7.5-3.1.1.5.1 1.3 0 2.3zM14.3 4.9c.5 0 .8-.3.8-.8V.8c0-.5-.3-.8-.8-.8s-.8.3-.8.8V4c0 .5.3.9.8.9zM20.1 6c.4.2.9 0 1.1-.4l1.2-3c.2-.4 0-.9-.4-1.1-.4-.2-.9 0-1.1.4l-1.2 3c-.3.4 0 1 .4 1.1zM7.5 5.6c.1.4.6.7 1.1.4.4-.1.6-.7.4-1.1L7.8 2c-.2-.5-.7-.7-1.1-.5-.4.2-.7.7-.4 1.1l1.2 3zm20.9.3c-.3-.3-.8-.3-1.2 0l-2.3 2.3c-.3.3-.3.8 0 1.2.3.3.8.3 1.2 0L28.4 7c.4-.3.4-.8 0-1.1zM3.7 9.3c.3-.3.3-.8 0-1.2L1.4 5.9c-.3-.3-.8-.3-1.2 0-.3.3-.3.8 0 1.2l2.3 2.3c.4.3.9.3 1.2-.1z"/></symbol><symbol fill="none" viewBox="0 0 27 61" id="mouse" xmlns="http://www.w3.org/2000/svg"><path d="M.25 36.516V23.924c0-6.771 5.946-12.341 13.25-12.341s13.25 5.57 13.25 12.341v12.592c0 6.771-5.946 12.342-13.25 12.342S.25 43.288.25 36.516zm24-12.592c0-5.54-4.854-10.043-10.75-10.043S2.75 18.384 2.75 23.924v12.592c0 5.54 4.854 10.044 10.75 10.044s10.75-4.503 10.75-10.044V23.924z" fill="#fff" stroke="#1241B9" stroke-width=".5"/><path d="M14.75 24.176c0 .56-.533 1.072-1.25 1.072s-1.25-.512-1.25-1.072V20.21c0-.56.533-1.072 1.25-1.072s1.25.511 1.25 1.072v3.966zm-1.425 33.421l.175.171.175-.171 2.314-2.267a1.011 1.011 0 011.45 0c.415.406.415 1 0 1.406l-3.214 3.148c-.211.207-.47.306-.725.306s-.514-.099-.725-.306L9.56 56.736c-.415-.405-.415-1 0-1.405a1.011 1.011 0 011.45 0l2.314 2.266zm.35-54.754l-.175-.17-.175.17-2.314 2.267c-.212.207-.47.306-.725.306s-.514-.1-.725-.306c-.415-.406-.415-1 0-1.406L12.775.556a1.011 1.011 0 011.45 0l3.214 3.148c.415.406.415 1 0 1.406a1.03 1.03 0 01-.725.306c-.254 0-.513-.1-.725-.306l-2.314-2.267z" fill="#fff" stroke="#1241B9" stroke-width=".5"/></symbol><symbol id="pdf" viewBox="0 0 40.6 47.1" xmlns="http://www.w3.org/2000/svg"><style>.hst0{fill:#fff}</style><path class="hst0" d="M40.4 10L30.6.3c-.1-.1-.2-.1-.3-.2 0-.1-.1-.1-.2-.1H6.4c-.8 0-1.6.3-2.2.9-.6.6-.9 1.4-.9 2.2v15.6c0 .2.1.4.2.6.2.2.4.2.6.2.2 0 .4-.1.6-.2.2-.2.2-.4.2-.6V3.1c0-.4.2-.8.4-1.1.3-.2.7-.4 1.1-.4h22.9v8.9c0 .2.1.4.2.6.2.2.4.2.6.2H39V44c0 .4-.2.8-.4 1.1s-.7.4-1.1.4H6.4c-.4 0-.8-.2-1.1-.4-.3-.3-.4-.7-.4-1.1v-4.2c0-.2-.1-.4-.2-.6-.2-.1-.4-.2-.6-.2-.2 0-.4.1-.6.2-.2.2-.2.4-.2.6V44c0 .8.3 1.6.9 2.2.6.6 1.4.9 2.2.9h31.1c.8 0 1.6-.3 2.2-.9.6-.6.9-1.4.9-2.2V10.6c0-.1 0-.2-.1-.3 0-.1 0-.2-.1-.3zm-9.5-7.2l7 7h-7v-7z"/><path class="hst0" d="M16.5 26.3h-1.4v5.8h1.6c.9.1 1.7-.2 2.4-.7.3-.3.5-.6.6-1 .1-.4.2-.8.2-1.2-.1-1.9-1.2-2.9-3.4-2.9zm-8.3 0H6.8v3.4h1.6c.3 0 .6 0 .9-.1.3-.1.5-.2.8-.4.2-.2.3-.4.4-.6.1-.2.1-.5.1-.7 0-.2 0-.5-.1-.7-.1-.2-.2-.4-.4-.6-.6-.2-1.2-.3-1.9-.3z"/><path class="hst0" d="M34.1 34.7v-11c0-.3-.1-.7-.2-1s-.3-.6-.6-.9c-.2-.2-.5-.4-.9-.6-.3-.1-.7-.2-1-.2H2.6c-.3 0-.7.1-1 .2-.3.1-.6.3-.9.6-.2.2-.4.5-.6.9-.1.3-.2.7-.2 1v11c0 .3.1.7.2 1 .1.3.3.6.6.9.3.3.6.4.9.6.3.1.7.2 1 .2h28.9c.3 0 .7-.1 1-.2.3-.1.6-.3.9-.6.2-.2.4-.5.6-.9s.1-.6.1-1zm-23-4.4c-.8.5-1.8.8-2.8.7H6.8v2.5H5.3V25h2.9c1-.1 2 .2 2.8.7.3.3.6.6.7 1 .2.4.2.8.2 1.2 0 .4 0 .8-.2 1.2-.1.6-.3.9-.6 1.2zm9 2c-1 .8-2.3 1.3-3.6 1.2h-2.8V25h2.9c1.3-.1 2.5.3 3.5 1.1.4.4.7.9 1 1.4.2.5.3 1.1.3 1.7 0 .6-.1 1.2-.3 1.7-.3.5-.6 1-1 1.4zm8.7-6h-4.2v2.3h3.8V30h-3.8v3.5h-1.4V25h5.7l-.1 1.3z"/></symbol><symbol fill="none" viewBox="0 0 23 17" id="youtube" xmlns="http://www.w3.org/2000/svg"><path d="M4.025 0C1.805 0 0 1.779 0 3.967v9.066C0 15.221 1.805 17 4.025 17h14.95C21.195 17 23 15.221 23 13.033V3.967C23 1.779 21.195 0 18.975 0H4.025zm0 1.133h14.95c1.603 0 2.875 1.254 2.875 2.834v9.066c0 1.58-1.272 2.834-2.875 2.834H4.025c-1.603 0-2.875-1.254-2.875-2.834V3.967c0-1.58 1.272-2.834 2.875-2.834zM8.877 4.25a.579.579 0 00-.384.178.562.562 0 00-.155.389v7.366c-.001.14.05.276.145.38a.578.578 0 00.699.125l6.9-3.683a.571.571 0 00.305-.5.56.56 0 00-.305-.5l-6.9-3.684a.582.582 0 00-.305-.071zm.61 1.523L14.61 8.5l-5.121 2.736V5.773z" fill="#fff" fill-opacity=".7"/></symbol></svg>