<svg width="12" height="11" viewBox="0 0 12 11" fill="none" xmlns="http://www.w3.org/2000/svg">
<path d="M9.62461 0.498291L3.37198 0.498291C2.06355 0.498291 0.998292 1.50507 0.998292 2.74166L0.998291 8.65104C0.998291 9.88763 2.06355 10.8944 3.37198 10.8944L9.62461 10.8944C10.933 10.8944 11.9983 9.88763 11.9983 8.65104L11.9983 2.74166C11.9983 1.50507 10.933 0.498291 9.62461 0.498291ZM9.19619 5.92616L7.41303 7.61142C7.34355 7.67708 7.2625 7.70991 7.16987 7.70991C7.08882 7.70991 6.99619 7.67708 6.92671 7.61142C6.79934 7.49105 6.79934 7.28313 6.92671 7.16275L8.1425 6.01371L4.03197 6.01371C3.84671 6.01371 3.69619 5.87144 3.69619 5.69635C3.69619 5.52126 3.84671 5.37899 4.03197 5.37899L8.1425 5.37899L6.93829 4.24089C6.81092 4.12052 6.81092 3.91259 6.93829 3.79222C7.06566 3.67184 7.28566 3.67184 7.41303 3.79222L9.19619 5.47748C9.33513 5.59786 9.33513 5.79484 9.19619 5.92616Z" fill="#103EB4"/>
</svg>
