<svg width="69" height="97" viewBox="0 0 69 97" fill="none" xmlns="http://www.w3.org/2000/svg">
<g clip-path="url(#clip0)">
<path d="M53.7269 84.4524L53.779 82.9421C52.6492 82.8994 51.5044 82.8145 50.3678 82.6632L50.1826 84.1574C51.3666 84.3078 52.5497 84.4108 53.7269 84.4524ZM46.6945 83.5727L47.0129 82.0946C45.9078 81.8527 44.7877 81.5686 43.6999 81.2412L43.2576 82.684C44.3886 83.0436 45.542 83.3318 46.6945 83.5727ZM39.911 81.5569L40.4632 80.1544C39.412 79.7506 38.3549 79.2853 37.3302 78.7768L36.6681 80.1391C37.7402 80.6466 38.8165 81.1209 39.911 81.5569ZM33.5529 78.4536L34.3299 77.1457C33.3466 76.5749 32.3908 75.9467 31.4582 75.2943L30.5896 76.5237C31.5373 77.2183 32.5455 77.8596 33.5529 78.4536ZM27.765 74.4016L28.7343 73.2316C27.8574 72.5119 27.0078 71.7348 26.2007 70.9426L25.1348 72.0199C25.9711 72.8493 26.8589 73.6446 27.765 74.4016ZM22.7097 69.4542L23.8531 68.4604C23.1016 67.6009 22.4017 66.7071 21.725 65.7892L20.4941 66.6712C21.2049 67.6405 21.9341 68.5715 22.7097 69.4542ZM18.5602 63.7404L19.8595 62.961C19.6585 62.6199 19.4526 62.2646 19.2466 61.9093C18.8931 61.2733 18.5486 60.6181 18.2375 59.9669L16.879 60.6246C17.2193 61.3129 17.5546 61.9872 17.9324 62.6464C18.1292 63.0208 18.3351 63.3761 18.5602 63.7404ZM15.4705 57.38L16.8882 56.8441C16.793 56.5764 16.6837 56.3138 16.5885 56.0461C16.3029 55.243 16.0456 54.4299 15.8025 53.6117L14.3447 54.0349C14.5838 54.8862 14.8511 55.7275 15.1466 56.5588C15.2701 56.8164 15.3703 57.0982 15.4705 57.38ZM15.0186 50.2879C14.7984 49.1759 14.6205 48.0489 14.4901 46.9208L12.9896 47.0894C13.1209 48.2647 13.3138 49.434 13.5299 50.5792L15.0186 50.2879ZM14.2361 43.5196C14.2005 42.3896 14.2073 41.2445 14.2616 40.0984L12.7566 40.0305C12.6982 41.2098 12.6873 42.3881 12.7379 43.5604L14.2361 43.5196ZM14.5483 36.6954C14.6882 35.5665 14.8756 34.4365 15.1154 33.3197L13.6392 33.0194C13.3953 34.1694 13.2038 35.3325 13.0506 36.5138L14.5483 36.6954ZM15.9496 30.0235C16.2751 28.9238 16.6389 27.8422 17.046 26.7929L15.6269 26.25C15.2015 27.3376 14.8245 28.4715 14.4757 29.5954L15.9496 30.0235ZM18.4336 23.6649C18.9314 22.6468 19.4817 21.6417 20.0752 20.6689L18.7656 19.8967C18.1488 20.8937 17.5853 21.951 17.0693 23.0074L18.4336 23.6649ZM21.9616 17.8239C22.6134 16.9255 23.3268 16.0212 24.0735 15.1208L22.9168 14.1514C22.1468 15.0759 21.4101 16.0044 20.74 16.941L21.9616 17.8239ZM26.3637 12.5607C27.1546 11.7399 27.9647 10.9281 28.7989 10.1395L27.7584 9.0494C26.9009 9.86215 26.0626 10.684 25.2676 11.538L26.3637 12.5607ZM31.3498 7.81996C32.2273 7.06356 33.1148 6.33533 34.0164 5.60208L33.0599 4.43453C32.1441 5.17281 31.2475 5.92014 30.37 6.67654L31.3498 7.81996ZM36.7223 3.44963C37.6531 2.75362 38.5648 2.04855 39.4956 1.35254L38.5906 0.150795C37.6598 0.846804 36.7289 1.54281 35.8081 2.267L36.7223 3.44963Z" fill="#27CDC2"/>
<path d="M48.3427 89.4617L47.3812 88.2801L53.1792 83.5839L48.0675 78.1646L49.1626 77.1245L55.3922 83.7174L48.3427 89.4617Z" fill="#27CDC2"/>
</g>
<defs>
<clipPath id="clip0">
<rect width="41.4078" height="87.4165" fill="white" transform="matrix(-0.942205 0.335037 0.335037 0.942205 39.0146 0)"/>
</clipPath>
</defs>
</svg>
