<?xml version="1.0" encoding="utf-8"?>
<!-- Generator: Adobe Illustrator 23.1.0, SVG Export Plug-In . SVG Version: 6.00 Build 0)  -->
<svg version="1.1" id="Слой_1" xmlns="http://www.w3.org/2000/svg" xmlns:xlink="http://www.w3.org/1999/xlink" x="0px" y="0px"
	 viewBox="0 0 44.1 55.9" style="enable-background:new 0 0 44.1 55.9;" xml:space="preserve">
<style type="text/css">
	.st0{fill:#103EB4;}
</style>
<path class="st0" d="M43.7,30.5c0.5-2.2,0.4-3.7,0.4-3.8c-0.1-5.9-2.6-11-7.5-14.7c-1.8-1.4-3.8-2.4-6-3.1l1.8-2.1
	c0.5-0.5,0.1-1.5-0.6-1.5H27l2.6-4.1c0.2-0.3,0.2-0.6,0-0.9C29.5,0.2,29.3,0,28.9,0H21c-0.4,0-0.6,0.2-0.8,0.5l-3.8,8.2
	C5.8,12,5.4,22,5.4,22.2c-0.1,4,0.4,5.2-0.5,6.9l-1.3,2.5l-0.8,1.7l-2.6,5.2c-0.3,0.6,0.2,1.2,0.8,1.2h4.6v7.1
	c0,1.5,0.4,2.8,1.4,3.7c1.8,1.7,4.7,1.7,4.7,1.7h3.8V55c0,0.5,0.4,0.9,0.9,0.9c0.5,0,0.9-0.3,0.9-0.9v-3.4c0-0.5-0.4-0.9-0.9-0.9
	h-4.7c-2.4,0-4.4-1.2-4.4-3.8V39c0-0.5-0.4-0.9-0.9-0.9h-4l2.4-4.8l0.9-1.8l0.9-1.7c1.1-2.3,0.6-3.8,0.7-7.7c0-0.3,0.4-7.9,8.3-11.2
	l-0.5,1.3c-0.3,0.6,0.2,1.2,0.8,1.2h5l-2.5,7.1c-0.4,0.9,0.9,1.6,1.5,0.9l9.8-11c2.2,0.7,4.3,1.7,6.2,3.1c4.4,3.4,6.7,7.9,6.8,13.4
	c0,0,0.1,1.5-0.5,3.7l-0.6,1.8c-0.8,2-2.1,4.5-4.4,7.1c-1.2,1.3-1.8,3.1-1.8,4.8V55c0,0.5,0.4,0.9,0.9,0.9c0.5,0,0.9-0.3,0.9-0.9
	V44.2c0-1.3,0.5-2.6,1.4-3.7c2.6-3,4.1-5.8,4.9-8.2L43.7,30.5z M21.3,16.9l1.4-4.1c0.2-0.5-0.3-1.1-0.8-1.1h-4.8l4.5-9.9h5.8
	l-2.6,4.1c-0.4,0.6,0.1,1.3,0.7,1.3H30L21.3,16.9z"/>
</svg>
