<svg width="27" height="61" viewBox="0 0 27 61" fill="none" xmlns="http://www.w3.org/2000/svg">
<path d="M0.25 36.516V23.9243C0.25 17.153 6.19639 11.5825 13.5 11.5825C20.8036 11.5825 26.75 17.153 26.75 23.9243V36.516C26.75 43.2873 20.8036 48.8578 13.5 48.8578C6.19639 48.8578 0.25 43.2873 0.25 36.516ZM24.25 23.9243C24.25 18.3836 19.3964 13.8807 13.5 13.8807C7.60361 13.8807 2.75 18.3836 2.75 23.9243V36.516C2.75 42.0567 7.60361 46.5596 13.5 46.5596C19.3964 46.5596 24.25 42.0567 24.25 36.516V23.9243Z" fill="white" stroke="#1241B9" stroke-width="0.5"/>
<path d="M14.75 24.1761C14.75 24.7365 14.2175 25.2482 13.5 25.2482C12.7825 25.2482 12.25 24.7365 12.25 24.1761V20.2097C12.25 19.6493 12.7825 19.1376 13.5 19.1376C14.2175 19.1376 14.75 19.6493 14.75 20.2097V24.1761Z" fill="white" stroke="#1241B9" stroke-width="0.5"/>
<path d="M13.3251 57.597L13.5 57.7683L13.6749 57.597L15.9892 55.3305C16.4063 54.922 17.0223 54.922 17.4394 55.3305C17.8535 55.7362 17.8535 56.3305 17.4394 56.7361L14.2251 59.8841C14.0137 60.0911 13.7547 60.1904 13.5 60.1904C13.2453 60.1904 12.9863 60.0911 12.7749 59.8841L9.56064 56.7361C9.14645 56.3305 9.14645 55.7362 9.56064 55.3305C9.97773 54.922 10.5937 54.922 11.0108 55.3305L13.3251 57.597Z" fill="white" stroke="#1241B9" stroke-width="0.5"/>
<path d="M13.6749 2.84339L13.5 2.67208L13.3251 2.84339L11.0108 5.1099C10.7994 5.31689 10.5404 5.41626 10.2857 5.41626C10.031 5.41626 9.77199 5.31689 9.56064 5.1099C9.14645 4.70427 9.14645 4.10992 9.56064 3.70428L12.7749 0.556362C13.192 0.147879 13.808 0.14788 14.2251 0.556362L17.4394 3.70428C17.8535 4.10992 17.8535 4.70427 17.4394 5.1099C17.228 5.31689 16.969 5.41626 16.7143 5.41626C16.4596 5.41626 16.2006 5.31689 15.9892 5.1099L13.6749 2.84339Z" fill="white" stroke="#1241B9" stroke-width="0.5"/>
</svg>
